<svg id="Layer_1" data-name="Layer 1" xmlns="http://www.w3.org/2000/svg" viewBox="0 0 564.13 155.85"><defs><style>.cls-1{fill:#00bc7e;}.cls-2{fill:#2e4960;}</style></defs><path class="cls-1" d="M66.58,0,42.67,103.49h-33L33.6,0ZM5.46,147.19A18.2,18.2,0,0,1,0,134a17.62,17.62,0,0,1,5.36-13.1A18.64,18.64,0,0,1,19,115.65q8.45,0,13.81,5.15A17.54,17.54,0,0,1,38.14,134a18.06,18.06,0,0,1-5.47,13.29A18.59,18.59,0,0,1,19,152.75,18.18,18.18,0,0,1,5.46,147.19Z"/><path class="cls-2" d="M167.39,152.75h-33l1.44-6.59q-13,9.69-30.72,9.69-21,0-33.19-15.46T63.49,101Q67.4,76.48,83.9,61.33a55.44,55.44,0,0,1,38.76-15.15q23.29,0,32.57,16.08l13.4-57.93h33ZM99.67,120.39q5.88,7.42,16.8,7.42,10.11,0,19-7.63A31,31,0,0,0,146.16,101q1.84-11.74-4.44-19.27a20.54,20.54,0,0,0-16.59-7.53A27.33,27.33,0,0,0,106,81.63q-8,7.43-10.1,19.38T99.67,120.39Z"/><path class="cls-2" d="M295.92,63.39q12.88,17.22,8.14,46.07H227.17q.41,9.29,5.57,14.64t15,5.36q14.85,0,22.89-12.58l28.86,6.6a55.26,55.26,0,0,1-22.16,24.12,62.31,62.31,0,0,1-31.65,8.25q-22.47,0-35.87-13t-13.4-34.63q0-26.39,18.66-44.22t43.81-17.83Q283,46.18,295.92,63.39Zm-20.1,25.87q-2.47-16.91-19.38-16.9-16.69,0-25.15,16.9Z"/><path class="cls-2" d="M419.91,152.75h-33l1.44-6.39q-13,9.49-30.51,9.49-21,0-33.29-15.46T316,101q3.93-24.33,20.52-39.58t38.65-15.25q23.7,0,32.78,16.28l3.09-13.19h32.78ZM352.4,120.39q5.88,7.42,16.8,7.42,10.31,0,19-7.63A31.43,31.43,0,0,0,398.68,101q1.86-11.74-4.33-19.27t-16.49-7.53a27.59,27.59,0,0,0-19.38,7.42q-8,7.43-9.89,19.38Q346.52,113,352.4,120.39Z"/><path class="cls-2" d="M552.26,62Q567.1,77.31,563.39,101q-3.92,24.12-22.26,39.38a63.65,63.65,0,0,1-41.85,15.25q-24.12,0-39-15.36T449.18,101q3.72-24.12,22.17-39.27a64.85,64.85,0,0,1,42.36-15.15Q537.41,46.59,552.26,62ZM521,120.29A30.91,30.91,0,0,0,531.64,101q1.86-11.74-4.53-19.27a20.42,20.42,0,0,0-16.29-7.53q-10.31,0-19.17,7.53A30.75,30.75,0,0,0,480.93,101q-1.86,11.76,4.54,19.28a20.86,20.86,0,0,0,16.69,7.52Q512.27,127.81,521,120.29Z"/></svg>